<?xml version="1.0" encoding="utf-8"?>
<svg xmlns="http://www.w3.org/2000/svg" viewBox="0 0 32 32" width="512" height="512">
  <path d="M22.3125 2.5C21.546875 2.5 20.765625 2.796875 20.1875 3.375C19.804688 3.757813 19.566406 4.226563 19.4375 4.71875C19.230469 4.675781 19.027344 4.625 18.8125 4.625C18.046875 4.625 17.265625 4.890625 16.6875 5.46875C15.53125 6.625 15.53125 8.53125 16.6875 9.6875L18.8125 11.8125L11.8125 18.8125L9.6875 16.6875C9.109375 16.109375 8.359375 15.8125 7.59375 15.8125C6.828125 15.8125 6.046875 16.109375 5.46875 16.6875C4.722656 17.4375 4.46875 18.5 4.6875 19.46875C4.207031 19.59375 3.753906 19.808594 3.375 20.1875C2.21875 21.34375 2.21875 23.25 3.375 24.40625L3.40625 24.4375L4.75 25.8125L4.0625 26.5L5.5 27.9375L6.1875 27.25L7.59375 28.625C8.75 29.78125 10.65625 29.78125 11.8125 28.625C12.1875 28.25 12.429688 27.792969 12.5625 27.3125C13.523438 27.519531 14.570313 27.273438 15.3125 26.53125C16.46875 25.375 16.46875 23.46875 15.3125 22.3125L13.1875 20.1875L20.1875 13.1875L22.3125 15.3125C23.46875 16.46875 25.375 16.46875 26.53125 15.3125C27.269531 14.570313 27.519531 13.523438 27.3125 12.5625C27.796875 12.429688 28.246094 12.191406 28.625 11.8125C29.78125 10.65625 29.78125 8.75 28.625 7.59375L27.25 6.1875L27.9375 5.5L26.5 4.0625L25.8125 4.75L24.40625 3.375C23.828125 2.796875 23.078125 2.5 22.3125 2.5 Z M 22.3125 4.5C22.5625 4.5 22.804688 4.585938 23 4.78125L27.21875 9C27.613281 9.394531 27.609375 9.984375 27.21875 10.375C26.828125 10.765625 26.207031 10.765625 25.8125 10.375L21.625 6.1875C21.234375 5.796875 21.234375 5.175781 21.625 4.78125C21.820313 4.585938 22.0625 4.5 22.3125 4.5 Z M 18.8125 6.59375C19.0625 6.59375 19.304688 6.710938 19.5 6.90625L25.09375 12.5C25.484375 12.894531 25.484375 13.511719 25.09375 13.90625C24.703125 14.296875 24.113281 14.265625 23.71875 13.875L23.6875 13.875L18.09375 8.28125C17.703125 7.890625 17.734375 7.300781 18.125 6.90625C18.316406 6.722656 18.570313 6.59375 18.8125 6.59375 Z M 7.59375 17.8125C7.84375 17.8125 8.085938 17.929688 8.28125 18.125L8.3125 18.125L13.90625 23.71875C14.296875 24.109375 14.265625 24.699219 13.875 25.09375C13.484375 25.464844 12.886719 25.480469 12.5 25.09375L11.8125 24.40625L11.6875 24.3125L7.59375 20.1875L6.90625 19.5C6.515625 19.105469 6.515625 18.488281 6.90625 18.09375C7.101563 17.898438 7.34375 17.8125 7.59375 17.8125 Z M 5.46875 21.3125C5.71875 21.3125 5.992188 21.429688 6.1875 21.625L10.375 25.8125C10.765625 26.203125 10.765625 26.824219 10.375 27.21875C9.984375 27.609375 9.394531 27.609375 9 27.21875L4.78125 23C4.386719 22.605469 4.390625 22.015625 4.78125 21.625C4.976563 21.429688 5.21875 21.3125 5.46875 21.3125Z" fill="#5B5B5B" />
</svg>