<?xml version="1.0" encoding="utf-8"?>
<svg xmlns="http://www.w3.org/2000/svg" viewBox="0 0 50 50" width="500" height="500">
  <path d="M26.273438 4.445313C26.148438 4.457031 26.027344 4.476563 25.902344 4.5C24.902344 4.699219 23.800781 5.5 22.800781 6.5L27.597656 9.5C28.199219 7.5 28.601563 5.5 27.300781 4.699219C27 4.472656 26.644531 4.417969 26.273438 4.445313 Z M 21.402344 8C20.199219 9.5 17.5 13 14.699219 17.402344C13.800781 18.800781 12.898438 20.402344 12 21.902344C12 22.800781 11.902344 23.601563 11.800781 24.402344C11.5 26.300781 11 27.898438 10.699219 28.5C10.300781 29.601563 9.699219 30.398438 9.101563 31L12.902344 33.402344C13.5 32.601563 14.5 31.199219 15.699219 29.597656L15.097656 29.199219C12.800781 28 11.699219 25.300781 12.597656 22.800781C13.300781 20.800781 15.300781 19.5 17.402344 19.5C17.800781 19.5 18.199219 19.597656 18.699219 19.699219L21.800781 20.5C24.199219 16.5 26 12.898438 26.800781 11.199219 Z M 16.902344 10.800781L10 11.800781C9.300781 11.902344 8.800781 12.300781 8.5 12.902344L2.898438 25.5C2.699219 26 2.5 26.699219 2.601563 27.300781C2.699219 28.402344 3.199219 29.398438 4 30.097656C5.101563 30.800781 6.398438 30.601563 7 30.300781C8.398438 29.699219 8.898438 27.800781 9 27.300781C9.300781 26.199219 10.300781 23.199219 9.898438 20.300781L10.800781 20.199219C11.5 18.898438 12.300781 17.699219 13 16.5C14.398438 14.300781 15.699219 12.402344 16.902344 10.800781 Z M 28.5 12.597656C27.800781 14.097656 26.101563 17.5 23.800781 21.300781L26.402344 22L28.402344 22.597656L27.300781 24.199219L18.199219 21.800781C16.699219 21.402344 15.101563 22.199219 14.5 23.699219C13.898438 25.199219 14.601563 26.898438 16 27.597656L27.402344 34C29.101563 34.898438 31 35.199219 32.902344 34.902344C33.101563 34.902344 40.902344 33.097656 40.902344 33.097656L38.800781 18.902344L28.800781 12.699219C28.699219 12.597656 28.601563 12.597656 28.5 12.597656 Z M 45.300781 17.402344L40.699219 18.097656L43.402344 35.699219L48 35 Z M 6.898438 32.097656C5.800781 35.199219 5.800781 37.199219 5.800781 38L5.101563 39C4.898438 39.300781 5 39.699219 5.300781 39.902344C5.5 40 5.601563 40 5.800781 40C6 39.898438 6.101563 39.800781 6.300781 39.699219L6.898438 38.699219C7.601563 38.398438 9.398438 37.5 11.699219 35.097656Z" fill="#5B5B5B" />
</svg>