<svg width="18" height="8" viewBox="0 0 18 8" fill="none" xmlns="http://www.w3.org/2000/svg">
<path d="M2.89773 6.50284V1.81534H3.69318V6.50284H2.89773ZM0.951705 4.55682V3.76136H5.6392V4.55682H0.951705ZM10.1218 7.05C10.0418 6.73 9.97513 6.41 9.9218 6.09C9.86846 5.76333 9.8218 5.44333 9.7818 5.13C9.7418 4.81667 9.70846 4.51 9.6818 4.21C9.65513 3.91 9.62846 3.61667 9.6018 3.33C9.57513 3.03667 9.54513 2.77 9.5118 2.53C9.47846 2.29 9.43513 2.07667 9.3818 1.89C9.33513 1.69667 9.27513 1.53667 9.2018 1.41C9.12846 1.27667 9.03846 1.17667 8.9318 1.11C8.8318 1.04333 8.70846 1.01 8.5618 1.01C8.3818 1.01 8.2218 1.06667 8.0818 1.18C7.94846 1.28667 7.8418 1.42333 7.7618 1.59C7.68846 1.75667 7.6518 1.92 7.6518 2.08C7.6518 2.28667 7.7018 2.46 7.8018 2.6C7.9018 2.74 8.03846 2.84333 8.2118 2.91C8.3918 2.97667 8.59513 3.01 8.8218 3.01C9.0018 3.01 9.1918 2.99 9.3918 2.95C9.59846 2.91 9.80513 2.85 10.0118 2.77L10.1018 3.48C9.85513 3.58667 9.6118 3.66667 9.3718 3.72C9.13846 3.76667 8.9118 3.79 8.6918 3.79C8.34513 3.79 8.03513 3.73 7.7618 3.61C7.49513 3.49 7.2818 3.31 7.1218 3.07C6.96846 2.83 6.8918 2.54 6.8918 2.2C6.8918 1.86667 6.96513 1.55 7.1118 1.25C7.26513 0.943333 7.47513 0.693333 7.7418 0.5C8.00846 0.306666 8.31846 0.21 8.6718 0.21C9.0118 0.21 9.28513 0.29 9.4918 0.45C9.70513 0.61 9.86846 0.83 9.9818 1.11C10.0951 1.38333 10.1785 1.69667 10.2318 2.05C10.2918 2.40333 10.3385 2.77333 10.3718 3.16C10.3985 3.46667 10.4251 3.78333 10.4518 4.11C10.4785 4.43667 10.5085 4.76667 10.5418 5.1C10.5818 5.42667 10.6251 5.74333 10.6718 6.05C10.7251 6.35667 10.7918 6.64667 10.8718 6.92L10.1218 7.05ZM12.4839 7.1L11.7039 6.78C11.8772 6.39333 12.0572 5.98 12.2439 5.54C12.4372 5.09333 12.6239 4.63667 12.8039 4.17C12.9906 3.70333 13.1639 3.24333 13.3239 2.79C13.4839 2.33 13.6272 1.89667 13.7539 1.49C13.8806 1.08333 13.9772 0.72 14.0439 0.4L14.8239 0.25L14.6639 0.89C14.5439 1.36333 14.3972 1.87333 14.2239 2.42C14.0572 2.96667 13.8739 3.52 13.6739 4.08C13.4806 4.64 13.2806 5.18 13.0739 5.7C12.8672 6.21333 12.6706 6.68 12.4839 7.1ZM16.2839 7.1C16.1239 6.71333 15.9639 6.31333 15.8039 5.9C15.6506 5.48667 15.4972 5.06667 15.3439 4.64C15.1972 4.21333 15.0539 3.79 14.9139 3.37C14.7806 2.95 14.6539 2.54333 14.5339 2.15C14.4206 1.75 14.3206 1.37 14.2339 1.01L14.0839 0.4L14.8239 0.25C14.9106 0.623333 15.0106 1.02333 15.1239 1.45C15.2439 1.87667 15.3772 2.31667 15.5239 2.77C15.6706 3.22333 15.8239 3.68 15.9839 4.14C16.1506 4.6 16.3239 5.05333 16.5039 5.5C16.6906 5.94667 16.8772 6.37667 17.0639 6.79L16.2839 7.1Z" fill="#5B5B5B"/>
</svg>
