<svg width="423" height="423" viewBox="0 0 423 423" fill="none" xmlns="http://www.w3.org/2000/svg">
<path d="M56.4 42.3V84.6H49.35C48.4158 84.5868 47.4883 84.7594 46.6213 85.1077C45.7544 85.4561 44.9654 85.9733 44.3001 86.6293C43.6348 87.2852 43.1065 88.0669 42.7459 88.9288C42.3853 89.7907 42.1996 90.7157 42.1996 91.65C42.1996 92.5843 42.3853 93.5093 42.7459 94.3712C43.1065 95.2331 43.6348 96.0148 44.3001 96.6707C44.9654 97.3267 45.7544 97.8439 46.6213 98.1923C47.4883 98.5406 48.4158 98.7132 49.35 98.7H56.4V141H98.7V98.7H115.334L127.175 157.854C127.51 159.524 128.145 161.119 129.048 162.563L132.518 168.098L160.36 217.834L174.708 267.9L131.389 319.784L65.8184 353.299L65.2676 353.519C63.4731 354.15 61.8248 355.137 60.4219 356.422C59.0189 357.706 57.8904 359.262 57.1042 360.994C56.318 362.726 55.8903 364.599 55.847 366.501C55.8036 368.402 56.1454 370.293 56.8519 372.059C57.5583 373.825 58.6148 375.43 59.9577 376.777C61.3006 378.125 62.9022 379.186 64.6661 379.898C66.4299 380.61 68.3196 380.958 70.2214 380.921C72.1233 380.883 73.9978 380.462 75.7324 379.681L146.232 351.481C147.14 351.122 148.007 350.67 148.821 350.132L149.289 349.801L225.628 310.2L271.645 310.696L282 365.581V366.6C281.974 368.468 282.319 370.323 283.015 372.057C283.712 373.791 284.747 375.369 286.059 376.7C287.37 378.03 288.934 379.087 290.658 379.808C292.381 380.529 294.231 380.901 296.1 380.901C297.969 380.901 299.819 380.529 301.542 379.808C303.266 379.087 304.83 378.03 306.141 376.7C307.453 375.369 308.488 373.791 309.184 372.057C309.881 370.323 310.226 368.468 310.2 366.6V289.931C310.198 286.714 309.096 283.595 307.078 281.09C305.059 278.586 302.245 276.847 299.102 276.162L254.268 262.254L263.246 221.331L291.721 166.116L293.952 162.563C294.855 161.119 295.49 159.524 295.825 157.854L307.666 98.7H324.3V141H366.6V98.7H373.65C374.584 98.7132 375.512 98.5406 376.379 98.1923C377.246 97.8439 378.035 97.3267 378.7 96.6707C379.365 96.0148 379.894 95.2331 380.254 94.3712C380.615 93.5093 380.8 92.5843 380.8 91.65C380.8 90.7157 380.615 89.7907 380.254 88.9288C379.894 88.0669 379.365 87.2852 378.7 86.6293C378.035 85.9733 377.246 85.4561 376.379 85.1077C375.512 84.7594 374.584 84.5868 373.65 84.6H366.6V42.3H324.3V84.6H310.228C310.253 82.7112 309.9 80.8365 309.187 79.0871C308.475 77.3376 307.418 75.7492 306.079 74.4161C304.741 73.083 303.149 72.0323 301.397 71.3265C299.644 70.6206 297.768 70.274 295.88 70.3072C292.63 70.3678 289.5 71.5494 287.021 73.6521C284.542 75.7548 282.866 78.6494 282.275 81.8461L281.725 84.6H141.275L140.725 81.8461C140.12 78.5752 138.379 75.6232 135.809 73.5117C133.239 71.4002 130.006 70.2652 126.68 70.3072C122.94 70.3584 119.374 71.893 116.766 74.5734C114.158 77.2538 112.721 80.8605 112.772 84.6H98.7V42.3H56.4ZM144.305 98.7H278.695L264.871 150.088L232.567 197.372L211.528 197.317C211.518 197.317 211.509 197.317 211.5 197.317C211.491 197.317 211.482 197.317 211.472 197.317L191.644 197.345L158.377 149.51L144.305 98.7ZM211.5 112.8C204.021 112.8 196.848 115.771 191.56 121.06C186.271 126.348 183.3 133.521 183.3 141C183.3 148.479 186.271 155.652 191.56 160.94C196.848 166.229 204.021 169.2 211.5 169.2C218.979 169.2 226.152 166.229 231.44 160.94C236.729 155.652 239.7 148.479 239.7 141C239.7 133.521 236.729 126.348 231.44 121.06C226.152 115.771 218.979 112.8 211.5 112.8Z" fill="url(#paint0_linear_9_116)"/>
<defs>
<linearGradient id="paint0_linear_9_116" x1="211.5" y1="42.3" x2="211.5" y2="380.924" gradientUnits="userSpaceOnUse">
<stop offset="0.0576923" stop-color="white" stop-opacity="0"/>
<stop offset="1" stop-color="#3700B3" stop-opacity="0.27"/>
</linearGradient>
</defs>
</svg>
